<?xml version="1.0" standalone="no"?>
<!DOCTYPE svg PUBLIC "-//W3C//DTD SVG 20010904//EN"
 "http://www.w3.org/TR/2001/REC-SVG-20010904/DTD/svg10.dtd">
<svg version="1.0" xmlns="http://www.w3.org/2000/svg"
 width="1024.000000pt" height="1024.000000pt" viewBox="0 0 1024.000000 1024.000000"
 preserveAspectRatio="xMidYMid meet">
<metadata>
Created by potrace 1.11, written by Peter Selinger 2001-2013
</metadata>
<g transform="translate(0.000000,1024.000000) scale(0.100000,-0.100000)"
fill="#000000" stroke="none">
<path d="M2848 7845 c-2 -2 -28 -6 -58 -9 -288 -31 -563 -171 -783 -399 -194
-199 -313 -414 -361 -647 -9 -41 -19 -91 -23 -110 -4 -19 -8 -705 -9 -1525 -3
-1671 -5 -1605 68 -1835 84 -264 295 -535 551 -706 161 -108 319 -170 522
-205 86 -15 313 -19 386 -8 30 5 69 11 87 14 169 27 370 112 526 223 98 70
251 220 329 324 31 42 57 79 57 81 0 3 16 31 35 63 57 94 128 293 141 394 2
19 8 60 14 90 12 75 12 2985 -1 3070 -21 139 -31 181 -66 280 -37 103 -92 211
-155 302 -226 326 -570 546 -928 593 -55 8 -326 15 -332 10z m259 -791 c37 -7
96 -28 132 -45 88 -43 214 -169 258 -259 64 -132 62 -112 63 -907 l0 -723
-585 0 -585 0 0 708 c1 395 5 729 10 757 26 136 84 240 186 334 140 128 326
176 521 135z"/>
<path d="M6678 6285 c-1 -1 -55 -5 -118 -9 -102 -5 -148 -10 -252 -31 -16 -3
-40 -7 -55 -10 -63 -12 -195 -54 -288 -91 -143 -57 -391 -199 -437 -250 -24
-27 -31 -65 -18 -99 6 -18 251 -269 615 -630 332 -330 921 -916 1309 -1302
387 -387 713 -704 723 -705 10 0 25 -2 33 -3 23 -2 57 33 115 120 230 348 327
683 320 1100 -2 83 -6 161 -9 175 -3 14 -8 48 -11 77 -11 113 -81 372 -131
483 -168 373 -419 667 -754 882 -189 121 -432 218 -630 252 -114 19 -187 28
-280 32 -58 3 -110 7 -117 9 -6 2 -13 2 -15 0z"/>
<path d="M5150 5507 c-46 -22 -197 -268 -265 -432 -48 -113 -103 -302 -119
-405 -7 -48 -18 -129 -22 -165 -5 -48 -5 -318 1 -345 3 -14 7 -52 10 -85 2
-33 7 -71 10 -85 2 -14 10 -50 16 -80 51 -257 182 -544 334 -736 22 -28 49
-63 60 -77 65 -83 209 -220 325 -309 284 -218 582 -336 970 -384 143 -18 451
-9 568 17 23 5 59 12 80 15 20 3 40 8 45 11 4 2 19 7 34 9 105 19 371 142 523
242 110 71 150 110 145 140 -2 9 -4 23 -4 30 -1 7 -376 388 -833 848 -458 459
-1045 1048 -1304 1309 -260 261 -484 479 -499 485 -34 13 -44 12 -75 -3z"/>
</g>
</svg>
