<?xml version="1.0" standalone="no"?>
<!DOCTYPE svg PUBLIC "-//W3C//DTD SVG 20010904//EN"
 "http://www.w3.org/TR/2001/REC-SVG-20010904/DTD/svg10.dtd">
<svg version="1.0" xmlns="http://www.w3.org/2000/svg"
 width="1024.000000pt" height="1024.000000pt" viewBox="0 0 1024.000000 1024.000000"
 preserveAspectRatio="xMidYMid meet">
<metadata>
Created by potrace 1.11, written by Peter Selinger 2001-2013
</metadata>
<g transform="translate(0.000000,1024.000000) scale(0.100000,-0.100000)"
fill="#000000" stroke="none">
<path d="M0 5120 l0 -5120 5120 0 5120 0 0 5120 0 5120 -5120 0 -5120 0 0
-5120z m3085 2829 c298 -37 569 -173 796 -399 209 -207 334 -436 396 -723 17
-76 18 -193 18 -1707 0 -1534 -1 -1630 -18 -1708 -105 -474 -423 -855 -864
-1032 -660 -264 -1416 -1 -1766 615 -96 169 -158 362 -177 555 -8 71 -10 596
-8 1645 4 1532 4 1540 25 1633 33 140 59 215 124 347 137 281 352 497 634 638
266 133 529 175 840 136z m3840 -1629 c422 -39 827 -205 1147 -469 89 -74 244
-248 345 -389 35 -48 98 -157 141 -242 236 -466 284 -976 140 -1478 -34 -118
-101 -284 -154 -381 -57 -104 -163 -260 -184 -271 -25 -13 -70 -12 -96 3 -34
19 -2712 2689 -2723 2715 -16 33 -13 80 5 112 33 54 309 208 504 280 273 101
599 145 875 120z m-1663 -816 c9 -5 621 -617 1361 -1360 1020 -1024 1346
-1357 1351 -1380 12 -55 -7 -80 -121 -155 -259 -171 -556 -281 -858 -319 -210
-26 -501 -10 -718 41 -554 130 -1046 508 -1311 1010 -306 579 -316 1276 -25
1864 78 158 164 285 207 306 33 17 77 14 114 -7z"/>
<path d="M2785 7150 c-236 -33 -449 -235 -500 -475 -12 -58 -15 -196 -15 -812
l0 -743 610 0 610 0 0 761 c0 847 2 819 -68 954 -69 132 -220 255 -369 298
-67 20 -192 28 -268 17z"/>
</g>
</svg>
